# xmcd
#
# Track frame offsets:
#	150
#	12933
#	27824
#	45312
#	57413
#	74740
#	91213
#	110613
#	121576
#
# Disc length: 1875 seconds
#
# Revision: 1
# Processed by: cddbd v1.5.2PL0 Copyright (c) Steve Scherf et al.
# Submitted via: audiograbber 1.83.01
#
DISCID=6e075109
DTITLE=Dale Menten and The Live Bait Band - Somethin' Fishy
DYEAR=2000
DGENRE=Country
TTITLE0=Somethin' Fishy
TTITLE1=Five-Foot Waves
TTITLE2=Mr. All-Science Fisherman
TTITLE3=The One That Got Away
TTITLE4=Pass It On
TTITLE5=Draggin' On The Bottom
TTITLE6=Fishin' On Your Mind
TTITLE7=Boat Butt
TTITLE8=Fishin' Slow
EXTD=©UnderBubble Music, BMI
EXTT0=
EXTT1=
EXTT2=
EXTT3=
EXTT4=
EXTT5=
EXTT6=
EXTT7=
EXTT8=
PLAYORDER=
